<?xml version="1.0" standalone="no"?>
<!DOCTYPE svg PUBLIC "-//W3C//DTD SVG 20010904//EN"
 "http://www.w3.org/TR/2001/REC-SVG-20010904/DTD/svg10.dtd">
<svg version="1.0" xmlns="http://www.w3.org/2000/svg"
 width="225.000000pt" height="225.000000pt" viewBox="0 0 225.000000 225.000000"
 preserveAspectRatio="xMidYMid meet">
<metadata>
Created by potrace 1.16, written by Peter Selinger 2001-2019
</metadata>
<g transform="translate(0.000000,225.000000) scale(0.100000,-0.100000)"
fill="#000000" stroke="none">
<path d="M235 2235 c-48 -17 -71 -43 -85 -95 -7 -26 -9 -374 -8 -1037 3 -932
4 -1000 21 -1030 9 -18 32 -41 50 -50 30 -17 90 -18 912 -18 822 0 882 1 912
18 71 38 68 -3 71 837 l2 754 -317 318 -318 318 -600 0 c-492 -1 -607 -3 -640
-15z m599 -979 c71 -30 105 -122 70 -192 -26 -52 -61 -74 -127 -81 l-57 -6 0
-49 c0 -60 -14 -88 -43 -88 -44 0 -47 13 -47 211 0 157 3 190 16 203 20 20
141 22 188 2z m406 -16 c67 -37 95 -94 95 -190 0 -89 -19 -129 -83 -174 -38
-27 -52 -31 -138 -34 -139 -6 -134 -14 -134 211 0 227 -4 221 125 215 72 -3
99 -9 135 -28z m368 18 c7 -7 12 -21 12 -33 0 -33 -20 -45 -77 -45 l-53 0 0
-59 0 -60 51 -3 c96 -6 96 -70 0 -76 l-51 -3 0 -50 c0 -59 -13 -89 -40 -89
-45 0 -50 20 -50 208 0 225 -2 222 114 222 50 0 87 -5 94 -12z"/>
<path d="M1080 1056 l0 -126 45 0 c35 0 52 6 77 29 31 28 33 34 33 95 0 58 -3
69 -27 92 -19 20 -39 28 -77 32 l-51 5 0 -127z"/>
</g>
</svg>
